<svg width="58" height="41" viewBox="0 0 58 41" fill="none" xmlns="http://www.w3.org/2000/svg">
<path d="M57.1309 12.8896C57.1309 11.1709 56.8053 9.54329 56.1543 8.00684C55.5033 6.49642 54.6178 5.1748 53.498 4.04199C52.3783 2.90918 51.0762 2.01725 49.5918 1.36621C48.0814 0.715168 46.4668 0.389648 44.748 0.389648C43.0293 0.389648 41.4147 0.715168 39.9043 1.36621C38.3939 2.01725 37.0723 2.90918 35.9395 4.04199C34.8066 5.1748 33.9017 6.49642 33.2246 8.00684C32.5736 9.54329 32.248 11.1709 32.248 12.8896C32.248 14.6344 32.5736 16.2751 33.2246 17.8115C33.8757 19.3219 34.7611 20.6436 35.8809 21.7764C37.0007 22.9092 38.3288 23.8011 39.8652 24.4521C41.3757 25.1032 43.0033 25.4287 44.748 25.4287C45.7897 25.4287 46.8118 25.305 47.8145 25.0576C48.8171 24.8102 49.735 24.4521 50.5684 23.9834C50.6986 23.9313 50.7897 23.8206 50.8418 23.6514C50.8939 23.4821 50.8809 23.2933 50.8027 23.085C50.7507 22.9548 50.64 22.8636 50.4707 22.8115C50.3014 22.7594 50.1126 22.7725 49.9043 22.8506C49.123 23.2933 48.2702 23.6188 47.3457 23.8271C46.4212 24.0355 45.5163 24.1396 44.6309 24.1396C43.0684 24.1396 41.61 23.8402 40.2559 23.2412C38.9017 22.6683 37.7168 21.874 36.7012 20.8584C35.6855 19.8428 34.8783 18.6449 34.2793 17.2646C33.6803 15.9105 33.3809 14.4521 33.3809 12.8896C33.3809 11.3532 33.6934 9.90788 34.3184 8.55371C34.9173 7.1735 35.7311 5.97559 36.7598 4.95996C37.7884 3.94434 38.9928 3.15007 40.373 2.57715C41.7533 1.97819 43.2116 1.67871 44.748 1.67871C46.3105 1.67871 47.7689 1.97819 49.123 2.57715C50.4772 3.15007 51.6621 3.94434 52.6777 4.95996C53.6934 5.97559 54.5007 7.1735 55.0996 8.55371C55.6725 9.90788 55.959 11.3532 55.959 12.8896V13.2803C55.959 13.4105 55.959 13.5212 55.959 13.6123C55.959 13.7035 55.959 13.8141 55.959 13.9443C55.959 16.6266 55.5814 19.2308 54.8262 21.7568C54.071 24.2829 52.9902 26.6462 51.584 28.8467C50.1777 31.0472 48.485 33.0199 46.5059 34.7646C44.5267 36.5355 42.3132 37.9808 39.8652 39.1006C39.6569 39.1527 39.5267 39.2699 39.4746 39.4521C39.4225 39.6344 39.4616 39.8167 39.5918 39.999C39.6439 40.1292 39.735 40.2269 39.8652 40.292C39.9954 40.3571 40.1126 40.3896 40.2168 40.3896C40.2949 40.3896 40.347 40.3896 40.373 40.3896C40.3991 40.3896 40.4382 40.3896 40.4902 40.3896C43.0423 39.1917 45.347 37.6813 47.4043 35.8584C49.4876 34.0094 51.2585 31.9391 52.7168 29.6475C54.1751 27.3558 55.2949 24.8818 56.0762 22.2256C56.8835 19.5954 57.2871 16.874 57.2871 14.0615C57.2871 13.9313 57.2871 13.8011 57.2871 13.6709C57.2871 13.5407 57.2871 13.4105 57.2871 13.2803L57.1309 12.8896ZM13.3809 0.389648C11.6621 0.389648 10.0345 0.715168 8.49805 1.36621C6.98763 2.01725 5.66602 2.90918 4.5332 4.04199C3.40039 5.1748 2.50846 6.49642 1.85742 8.00684C1.20638 9.54329 0.880859 11.1709 0.880859 12.8896C0.880859 14.6084 1.20638 16.223 1.85742 17.7334C2.50846 19.2699 3.40039 20.6045 4.5332 21.7373C5.66602 22.8701 6.98763 23.762 8.49805 24.4131C10.0345 25.0902 11.6621 25.4287 13.3809 25.4287C14.4225 25.4287 15.4447 25.305 16.4473 25.0576C17.4499 24.8102 18.3678 24.4521 19.2012 23.9834C19.3314 23.9313 19.4225 23.8206 19.4746 23.6514C19.5267 23.4821 19.5267 23.2933 19.4746 23.085C19.3965 22.9027 19.2728 22.7985 19.1035 22.7725C18.9342 22.7464 18.7585 22.7725 18.5762 22.8506C17.7949 23.2933 16.9421 23.6188 16.0176 23.8271C15.0931 24.0355 14.1751 24.1396 13.2637 24.1396C11.7533 24.1396 10.321 23.8402 8.9668 23.2412C7.63867 22.6683 6.4668 21.874 5.45117 20.8584C4.43555 19.8428 3.64128 18.6449 3.06836 17.2646C2.4694 15.9105 2.16992 14.4521 2.16992 12.8896C2.16992 11.3532 2.4694 9.90788 3.06836 8.55371C3.64128 7.1735 4.43555 5.97559 5.45117 4.95996C6.4668 3.94434 7.66471 3.15007 9.04492 2.57715C10.3991 1.97819 11.8444 1.67871 13.3809 1.67871C14.9434 1.67871 16.4017 1.97819 17.7559 2.57715C19.1361 3.15007 20.334 3.94434 21.3496 4.95996C22.3652 5.97559 23.1595 7.1735 23.7324 8.55371C24.3314 9.90788 24.6309 11.3532 24.6309 12.8896V13.2803C24.6309 13.4105 24.6309 13.5212 24.6309 13.6123C24.6309 13.7035 24.6309 13.8141 24.6309 13.9443C24.6309 16.6266 24.2533 19.2308 23.498 21.7568C22.7168 24.2829 21.6296 26.6462 20.2363 28.8467C18.8431 31.0472 17.1439 33.0199 15.1387 34.7646C13.1595 36.5355 10.946 37.9808 8.49805 39.1006C8.28971 39.1527 8.15951 39.2699 8.10742 39.4521C8.05534 39.6344 8.0944 39.8167 8.22461 39.999C8.22461 40.1292 8.2832 40.2269 8.40039 40.292C8.51758 40.3571 8.62826 40.3896 8.73242 40.3896C8.81055 40.3896 8.86263 40.3896 8.88867 40.3896C8.91471 40.3896 8.95378 40.3896 9.00586 40.3896C11.5579 39.1917 13.8626 37.6813 15.9199 35.8584C18.0033 34.0094 19.7741 31.9391 21.2324 29.6475C22.6908 27.3558 23.8105 24.8818 24.5918 22.2256C25.3991 19.5954 25.8027 16.874 25.8027 14.0615C25.8027 13.9313 25.8027 13.8011 25.8027 13.6709C25.8027 13.5407 25.8027 13.4105 25.8027 13.2803V12.8896C25.8288 11.1969 25.5163 9.58236 24.8652 8.0459C24.2142 6.53548 23.3288 5.21387 22.209 4.08105C21.0892 2.94824 19.7611 2.04329 18.2246 1.36621C16.7142 0.715168 15.0996 0.389648 13.3809 0.389648Z" fill="#568673"/>
</svg>
